<?xml version="1.0" encoding="UTF-8"?>
<svg xmlns="http://www.w3.org/2000/svg" xmlns:xlink="http://www.w3.org/1999/xlink" width="2001pt" height="600pt" viewBox="0 0 2001 600" version="1.1">
<g id="surface1">
<path style=" stroke:none;fill-rule:nonzero;fill:rgb(12.54902%,47.058824%,73.72549%);fill-opacity:1;" d="M 879.730469 253.425781 L 783.925781 253.425781 C 774.417969 253.425781 770.210938 257.378906 769.429688 264.890625 L 757.363281 367.503906 C 756.605469 375.015625 759.648438 378.9375 769.160156 378.9375 L 866.113281 378.9375 L 864.746094 394.296875 L 737.375 394.296875 C 700.203125 394.296875 687.339844 377.476562 690.214844 351.082031 L 699.777344 280.582031 C 702.664062 254.125 719.703125 237.324219 756.875 237.324219 L 881.503906 237.324219 Z M 879.730469 253.425781 "/>
<path style=" stroke:none;fill-rule:nonzero;fill:rgb(12.54902%,47.058824%,73.72549%);fill-opacity:1;" d="M 902.429688 394.210938 L 919.542969 237.105469 L 1056.664062 237.105469 L 1055.160156 253.277344 L 1000.109375 253.277344 C 989.671875 253.277344 985.804688 256.464844 984.714844 264.695312 L 970.875 394.210938 Z M 902.429688 394.210938 "/>
<path style=" stroke:none;fill-rule:nonzero;fill:rgb(12.54902%,47.058824%,73.72549%);fill-opacity:1;" d="M 1296.859375 351.417969 C 1294.175781 377.855469 1277.609375 394.648438 1241.3125 394.648438 L 1115.546875 394.648438 C 1079.273438 394.648438 1066.636719 377.863281 1069.316406 351.417969 L 1077.707031 280.300781 C 1080.425781 253.863281 1097.476562 237.070312 1133.761719 237.070312 L 1259.542969 237.070312 C 1295.824219 237.070312 1308.46875 253.859375 1305.78125 280.300781 Z M 1228.183594 253.078125 L 1158.351562 253.078125 C 1149.058594 253.078125 1144.988281 256.996094 1144.253906 264.5 L 1133.929688 367.386719 C 1133.21875 374.878906 1136.167969 378.835938 1145.464844 378.835938 L 1215.320312 378.835938 C 1224.585938 378.835938 1228.6875 374.878906 1229.394531 367.386719 L 1239.777344 264.503906 C 1240.472656 257.023438 1237.472656 253.085938 1228.183594 253.085938 Z M 1228.183594 253.078125 "/>
<path style=" stroke:none;fill-rule:nonzero;fill:rgb(12.54902%,47.058824%,73.72549%);fill-opacity:1;" d="M 1903.347656 236.988281 C 1936.414062 236.988281 1953.261719 250.976562 1949.648438 280.632812 L 1937.671875 394.710938 L 1868.984375 394.710938 L 1884.085938 265.25 C 1884.761719 257.417969 1881.34375 253.820312 1871.371094 253.820312 L 1808.230469 253.820312 C 1797.820312 253.820312 1793.929688 257.003906 1792.804688 265.25 L 1779.320312 395.0625 L 1709.582031 395.0625 L 1726.457031 236.714844 Z M 1903.347656 236.988281 "/>
<path style=" stroke:none;fill-rule:nonzero;fill:rgb(12.54902%,47.058824%,73.72549%);fill-opacity:1;" d="M 1675.480469 351.191406 C 1672.125 380.8125 1652.023438 394.738281 1618.925781 394.738281 L 1380.144531 394.738281 C 1347.101562 394.738281 1330.226562 380.8125 1333.824219 351.191406 L 1346.980469 237.652344 L 1414.109375 237.652344 L 1399.875 367.464844 C 1399.195312 375.34375 1402.585938 378.914062 1412.5625 378.914062 L 1455.546875 378.914062 C 1465.984375 378.914062 1469.867188 375.699219 1470.929688 367.464844 L 1484.546875 237.453125 L 1552.234375 237.453125 L 1538.808594 366.964844 C 1537.96875 375.195312 1541.09375 378.410156 1551.511719 378.410156 L 1592.347656 378.410156 C 1602.320312 378.410156 1603.3125 374.839844 1604.476562 366.964844 L 1618.53125 237.640625 L 1688.140625 237.640625 Z M 1675.480469 351.191406 "/>
<path style=" stroke:none;fill-rule:nonzero;fill:rgb(12.54902%,47.058824%,73.72549%);fill-opacity:1;" d="M 1961.285156 256.429688 C 1961.285156 245.242188 1970.300781 236.992188 1981.015625 236.992188 C 1991.554688 236.992188 2000.683594 245.246094 2000.683594 256.429688 C 2000.683594 267.617188 1991.554688 275.929688 1981.015625 275.929688 C 1970.300781 275.929688 1961.285156 267.671875 1961.285156 256.429688 M 1981.015625 272.707031 C 1989.796875 272.707031 1996.761719 265.796875 1996.761719 256.429688 C 1996.761719 247.238281 1989.796875 240.265625 1981.015625 240.265625 C 1972.121094 240.265625 1965.148438 247.238281 1965.148438 256.429688 C 1965.148438 265.796875 1972.121094 272.707031 1981.015625 272.707031 M 1976.917969 267.671875 L 1973.523438 267.671875 L 1973.523438 245.246094 L 1982.066406 245.246094 C 1987.335938 245.246094 1989.96875 247.238281 1989.96875 251.628906 C 1989.96875 255.671875 1987.453125 257.425781 1984.117188 257.835938 L 1990.558594 267.671875 L 1986.691406 267.671875 L 1980.777344 258.015625 L 1976.949219 258.015625 Z M 1980.957031 255.082031 C 1983.824219 255.082031 1986.402344 254.910156 1986.402344 251.457031 C 1986.402344 248.660156 1983.882812 248.171875 1981.484375 248.171875 L 1976.949219 248.171875 L 1976.949219 255.082031 Z M 1980.957031 255.082031 "/>
<path style=" stroke:none;fill-rule:nonzero;fill:rgb(12.54902%,47.058824%,73.72549%);fill-opacity:1;" d="M 1077.621094 440.386719 L 1077.621094 482.542969 L 1027.441406 482.542969 L 1027.441406 440.386719 L 1007.117188 440.386719 L 1007.117188 535.304688 L 1027.441406 535.304688 L 1027.441406 491.0625 L 1077.621094 491.0625 L 1077.589844 525.109375 C 1077.519531 526.949219 1077.96875 528.773438 1078.882812 530.371094 C 1079.695312 531.648438 1080.804688 532.714844 1082.117188 533.476562 C 1083.402344 534.203125 1084.800781 534.703125 1086.257812 534.953125 C 1087.550781 535.175781 1088.859375 535.292969 1090.171875 535.304688 L 1097.960938 535.304688 L 1097.960938 440.386719 Z M 1077.621094 440.386719 "/>
<path style=" stroke:none;fill-rule:nonzero;fill:rgb(12.54902%,47.058824%,73.72549%);fill-opacity:1;" d="M 1474.734375 535.316406 L 1474.734375 440.386719 L 1454.863281 440.386719 L 1415.105469 510.6875 L 1374.550781 440.386719 L 1354.410156 440.386719 L 1354.410156 535.304688 L 1364.777344 535.304688 L 1364.777344 461.699219 L 1407.476562 535.316406 L 1412.777344 535.316406 L 1454.34375 462.273438 L 1454.34375 525.09375 C 1454.269531 526.9375 1454.730469 528.761719 1455.664062 530.355469 C 1456.480469 531.628906 1457.582031 532.695312 1458.886719 533.472656 C 1460.167969 534.199219 1461.566406 534.695312 1463.019531 534.9375 C 1464.3125 535.175781 1465.621094 535.304688 1466.933594 535.316406 Z M 1474.734375 535.316406 "/>
<path style=" stroke:none;fill-rule:nonzero;fill:rgb(12.54902%,47.058824%,73.72549%);fill-opacity:1;" d="M 1602.148438 535.3125 L 1551.355469 438.289062 L 1545.398438 438.289062 L 1493.371094 535.3125 L 1505.242188 535.3125 L 1521.402344 505.097656 L 1558.324219 505.097656 L 1553.222656 495.421875 L 1526.628906 495.421875 L 1543.730469 463.527344 L 1577.292969 527.753906 C 1578.628906 530.382812 1580.28125 532.316406 1582.207031 533.519531 C 1584.128906 534.722656 1586.679688 535.289062 1589.796875 535.289062 Z M 1602.148438 535.3125 "/>
<path style=" stroke:none;fill-rule:nonzero;fill:rgb(12.54902%,47.058824%,73.72549%);fill-opacity:1;" d="M 1707.839844 440.386719 C 1707.214844 440.386719 1706.585938 440.4375 1705.96875 440.542969 C 1705.246094 440.667969 1704.550781 440.914062 1703.914062 441.273438 C 1703.230469 441.664062 1702.65625 442.214844 1702.234375 442.882812 C 1701.75 443.695312 1701.511719 444.632812 1701.542969 445.578125 L 1701.542969 506.78125 L 1633.921875 440.386719 L 1620.886719 440.386719 L 1620.886719 535.300781 L 1632.742188 535.300781 L 1632.742188 463.734375 L 1701.359375 532.945312 C 1704.15625 535.511719 1708.039062 535.316406 1711.789062 535.316406 L 1713.207031 535.316406 L 1713.207031 440.386719 Z M 1707.839844 440.386719 "/>
<path style=" stroke:none;fill-rule:nonzero;fill:rgb(12.54902%,47.058824%,73.72549%);fill-opacity:1;" d="M 1175.023438 438.289062 L 1169.082031 438.289062 L 1116.96875 535.3125 L 1128.839844 535.3125 L 1167.363281 463.550781 L 1184.039062 495.445312 L 1157.289062 495.445312 L 1152.132812 505.136719 L 1189.140625 505.136719 L 1200.855469 527.78125 C 1201.933594 530.117188 1203.628906 532.113281 1205.761719 533.554688 C 1207.714844 534.769531 1210.265625 535.304688 1213.351562 535.304688 L 1225.855469 535.304688 Z M 1175.023438 438.289062 "/>
<path style=" stroke:none;fill-rule:nonzero;fill:rgb(12.54902%,47.058824%,73.72549%);fill-opacity:1;" d="M 1265.230469 448.722656 L 1265.230469 484.683594 L 1274.628906 484.683594 C 1274.628906 484.683594 1283.960938 484.8125 1290.019531 481.421875 C 1296.078125 478.03125 1300.371094 473.320312 1300.371094 466.277344 C 1300.371094 459.230469 1295.742188 452.976562 1289.183594 450.511719 C 1289.183594 450.511719 1285.441406 448.722656 1278.769531 448.722656 Z M 1305.664062 527.675781 L 1275.703125 491.898438 L 1265.289062 491.898438 L 1265.289062 535.265625 L 1244.976562 535.265625 L 1244.976562 440.386719 L 1282.257812 440.386719 C 1282.257812 440.386719 1297.664062 440.167969 1307.746094 445.085938 C 1317.828125 450.003906 1322.089844 456.921875 1322.089844 465.695312 C 1322.089844 474.46875 1316.695312 484.820312 1297.429688 490.027344 L 1336.234375 535.316406 L 1320.65625 535.316406 C 1318.246094 535.257812 1315.859375 534.839844 1313.574219 534.074219 C 1309.765625 532.820312 1305.648438 527.714844 1305.648438 527.714844 "/>
<path style=" stroke:none;fill-rule:nonzero;fill:rgb(12.54902%,47.058824%,73.72549%);fill-opacity:1;" d="M 929.792969 529.507812 C 932.007812 530.359375 934.363281 530.800781 936.738281 530.808594 C 944.144531 530.808594 949.460938 525.6875 949.460938 518.59375 C 949.460938 512.046875 945.347656 507.355469 939.660156 507.355469 C 936.113281 507.355469 933.203125 508.957031 929.792969 512.730469 Z M 926.753906 491.0625 L 929.792969 491.0625 L 929.792969 509.386719 C 932.761719 506.546875 935.480469 504.910156 940.035156 504.910156 C 947.496094 504.910156 952.675781 510.507812 952.675781 518.4375 C 952.675781 527.757812 946.421875 533.738281 936.804688 533.738281 C 933.386719 533.738281 930.613281 533.125 926.738281 531.648438 Z M 926.753906 491.0625 "/>
<path style=" stroke:none;fill-rule:nonzero;fill:rgb(12.54902%,47.058824%,73.72549%);fill-opacity:1;" d="M 961.917969 547.351562 L 958.8125 547.351562 L 968.75 527.78125 L 956.800781 505.4375 L 959.953125 505.4375 L 970.265625 524.824219 L 980.070312 505.4375 L 983.167969 505.4375 Z M 961.917969 547.351562 "/>
<path style=" stroke:none;fill-rule:nonzero;fill:rgb(12.54902%,47.058824%,73.72549%);fill-opacity:1;" d="M 0.3125 300.003906 C 0.3125 134.316406 134.613281 0.0273438 300.234375 0.0273438 C 465.855469 0.0273438 600.175781 134.316406 600.175781 300.03125 C 600.175781 465.742188 465.917969 600.027344 300.234375 600.027344 C 134.550781 600.027344 0.3125 465.738281 0.3125 300.03125 M 300.234375 533.046875 C 428.9375 533.046875 533.210938 428.726562 533.210938 300.03125 C 533.210938 171.335938 428.9375 66.984375 300.234375 66.984375 C 171.535156 66.984375 67.273438 171.308594 67.273438 300.003906 C 67.273438 428.695312 171.589844 533.015625 300.234375 533.015625 Z M 301.566406 236.546875 L 233.542969 289.308594 L 180.191406 267.71875 L 185.785156 315.351562 L 417.613281 315.351562 L 423.207031 267.71875 L 369.910156 289.308594 Z M 300.234375 114.609375 C 197.863281 114.609375 114.894531 197.636719 114.894531 300.03125 C 114.894531 402.425781 197.871094 485.445312 300.234375 485.445312 C 402.601562 485.445312 485.582031 402.386719 485.582031 300.003906 C 485.582031 197.617188 402.59375 114.582031 300.234375 114.582031 Z M 433.105469 393.609375 L 167.839844 393.609375 L 165.042969 366.882812 L 436.386719 366.785156 Z M 162.214844 341.890625 L 146.746094 211.457031 L 230.425781 254.617188 L 301.699219 198.910156 L 373.003906 254.617188 L 457.359375 211.457031 L 440.320312 341.890625 Z M 162.214844 341.890625 "/>
</g>
</svg>
